<svg xmlns="http://www.w3.org/2000/svg" xmlns:xlink="http://www.w3.org/1999/xlink" width="163" height="158" viewBox="0 0 163 158">
  <defs>
    <clipPath id="clip-path">
      <ellipse id="Ellipse_1" data-name="Ellipse 1" cx="81.5" cy="79" rx="81.5" ry="79" transform="translate(107 58)" fill="#ff6138" stroke="#707070" stroke-width="1"/>
    </clipPath>
  </defs>
  <g id="Mask_Group_2" data-name="Mask Group 2" transform="translate(-107 -58)" clip-path="url(#clip-path)">
    <g id="temp_formal-1449N4914N49_temp" transform="translate(108.164 56.65)">
      <path id="Path_41" data-name="Path 41" d="M159.322,124.549A34.8,34.8,0,0,1,105.4,153.624a67.661,67.661,0,0,1-6.224-5.216,29.372,29.372,0,0,0-19.067-5.69,28.588,28.588,0,0,0-17.4,4.574,34.564,34.564,0,0,1-7.8,6.7.622.622,0,0,0-.164.108v.019a.8.8,0,0,1-.167.092c-.036.036-.052.036-.052.036a34.566,34.566,0,0,1-18.134,5.1h-.239A34.813,34.813,0,0,1,13.723,97.922a21.69,21.69,0,0,0,3.84-9,2.825,2.825,0,0,1,.04-.363,42.357,42.357,0,0,0,.674-7.974,29.186,29.186,0,0,0-5.582-18.92,66.4,66.4,0,0,1-5.51-6.531A34.817,34.817,0,0,1,36.39,1.35h.4A34.821,34.821,0,0,1,71.207,36.171v.168a34.688,34.688,0,0,1-5.726,18.955,70.162,70.162,0,0,1-5.215,6.22,29.358,29.358,0,0,0-5.69,19.067,45.353,45.353,0,0,0,.458,6.734,22.461,22.461,0,0,0,4.538,11.216c.766.933,1.595,1.83,2.412,2.727a3.078,3.078,0,0,1,.3.239,27.624,27.624,0,0,0,17.839,4.92c.77,0,1.555,0,2.325-.056a27.36,27.36,0,0,0,16.579-5.542,66.907,66.907,0,0,1,6.527-5.479,34.824,34.824,0,0,1,29.505-3.987.219.219,0,0,1,.108.056,34.765,34.765,0,0,1,24.155,33.138Z" fill="#ff6138"/>
      <path id="Path_42" data-name="Path 42" d="M159.322,36.184a34.817,34.817,0,0,1-58.773,25.271l-.056-.056A34.654,34.654,0,0,1,89.728,36.79v-.076a4.728,4.728,0,0,1-.02-.53A34.821,34.821,0,0,1,141.435,5.753l.184.128a34.685,34.685,0,0,1,14.07,14.861.448.448,0,0,0,.077.108A34.761,34.761,0,0,1,159.322,36.184Z" fill="#ff6138"/>
    </g>
  </g>
</svg>
